<?xml version="1.0" encoding="UTF-8"?><svg version="1.2" baseProfile="tiny" viewBox="0 0 128 128" width="128px" height="128px" xmlns="http://www.w3.org/2000/svg"><g fill="#eee"><rect y="44" width="2" height="1" x="26"/><rect y="44" width="11" height="1" x="28"/><rect x="56" y="44" width="15" height="1"/><rect x="77" y="44" width="1" height="1"/><rect x="78" y="44" width="1" height="1"/><rect y="44" width="4" height="1" x="79"/><rect width="1" height="1" x="99" y="44"/><rect y="44" width="5" height="1" x="100"/><rect x="105" y="44" width="1" height="1"/><rect height="1" x="54" y="45" width="1"/><rect y="46" width="1" height="1" x="98"/><rect width="1" height="1" x="105" y="46"/><rect x="85" y="48" width="1" height="1"/><rect x="46" y="49" width="1" height="1"/><rect height="1" x="78" y="49" width="1"/><rect height="1" x="97" y="50" width="1"/><rect height="1" x="104" y="50" width="1"/><rect height="1" x="32" y="51" width="1"/><rect height="1" x="47" y="51" width="1"/><rect x="59" y="51" width="1" height="9"/><rect width="1" height="24" x="32" y="52"/><rect x="40" y="52" width="1" height="1"/><rect width="1" height="1" x="86" y="52"/><rect width="1" height="1" x="79" y="53"/><rect y="54" width="1" height="1" x="41"/><rect x="103" y="54" width="1" height="1"/><rect y="56" width="1" height="1" x="87"/><rect x="95" y="57" width="1" height="1"/><rect x="102" y="58" width="1" height="1"/><rect x="81" y="60" width="1" height="1"/><rect height="1" x="88" y="60" width="1"/><rect x="94" y="61" width="1" height="1"/><rect x="101" y="61" width="1" height="1"/><rect width="1" height="1" x="82" y="64"/><rect height="1" x="89" y="64" width="1"/><rect x="93" y="65" width="1" height="1"/><rect y="65" width="1" height="1" x="100"/><rect x="59" y="68" width="1" height="9"/><rect x="83" y="68" width="1" height="1"/><rect y="68" width="1" height="1" x="90"/><rect y="69" width="1" height="1" x="92"/><rect y="69" width="1" height="1" x="99"/><rect x="41" y="73" width="1" height="1"/><rect x="98" y="73" width="1" height="1"/><rect height="1" x="40" y="75" width="1"/><rect x="85" y="75" width="1" height="1"/><rect x="32" y="76" width="1" height="1"/><rect x="47" y="76" width="1" height="1"/><rect y="78" width="1" height="1" x="46"/><rect x="86" y="79" width="1" height="1"/><rect x="95" y="81" width="1" height="1"/><rect y="82" width="1" height="1" x="54"/><rect x="94" y="82" width="1" height="1"/><rect x="26" y="83" width="13" height="1"/><rect y="83" width="15" height="1" x="56"/><rect x="71" y="83" width="1" height="1"/><rect height="1" x="91" y="83" width="2"/></g><g fill="#ccc"><rect x="39" y="44" width="1" height="1"/><rect x="42" y="45" width="1" height="1"/><rect y="45" width="1" height="1" x="98"/><rect x="53" y="46" width="1" height="1"/><rect height="1" x="77" y="46" width="1"/><rect x="105" y="47" width="1" height="1"/><rect height="1" x="97" y="49" width="1"/><rect height="1" x="104" y="51" width="1"/><rect height="1" x="96" y="53" width="1"/><rect x="41" y="55" width="1" height="18"/><rect height="1" x="80" y="57" width="1"/><rect width="1" height="1" x="88" y="59"/><rect x="60" y="60" width="7" height="1"/><rect height="1" x="67" y="61" width="1"/><rect x="81" y="61" width="1" height="1"/><rect height="1" x="101" y="62" width="1"/><rect y="63" width="1" height="1" x="89"/><rect width="1" height="1" x="67" y="66"/><rect y="66" width="1" height="1" x="100"/><rect y="67" width="1" height="1" x="90"/><rect width="1" height="1" x="92" y="68"/><rect y="70" width="1" height="1" x="91"/><rect width="1" height="1" x="84" y="72"/><rect x="85" y="76" width="1" height="1"/><rect x="97" y="77" width="1" height="1"/><rect width="1" height="1" x="53" y="81"/><rect x="42" y="82" width="1" height="1"/><rect x="88" y="82" width="1" height="1"/><rect width="1" height="1" x="39" y="83"/><rect height="1" x="90" y="83" width="1"/></g><g fill="#666"><rect height="1" x="41" y="44" width="1"/><rect height="1" x="76" y="44" width="1"/><rect x="43" y="45" width="1" height="1"/><rect width="1" height="1" x="52" y="47"/><rect y="47" width="1" height="1" x="97"/><rect height="1" x="77" y="48" width="1"/><rect width="1" height="1" x="105" y="49"/><rect x="72" y="51" width="1" height="1"/><rect x="39" y="52" width="1" height="1"/><rect x="48" y="52" width="1" height="1"/><rect x="78" y="52" width="1" height="1"/><rect height="1" x="40" y="53" width="1"/><rect y="53" width="1" height="1" x="104"/><rect height="1" x="88" y="57" width="1"/><rect x="80" y="59" width="1" height="1"/><rect x="89" y="61" width="1" height="1"/><rect y="62" width="1" height="1" x="93"/><rect height="1" x="81" y="63" width="1"/><rect y="64" width="1" height="1" x="101"/><rect y="65" width="1" height="1" x="90"/><rect width="1" height="1" x="92" y="66"/><rect x="82" y="67" width="1" height="1"/><rect x="100" y="68" width="1" height="1"/><rect x="99" y="72" width="1" height="1"/><rect x="40" y="74" width="1" height="1"/><rect y="75" width="1" height="1" x="39"/><rect x="48" y="75" width="1" height="1"/><rect x="72" y="76" width="1" height="1"/><rect x="85" y="78" width="1" height="1"/><rect width="1" height="1" x="97" y="79"/><rect x="52" y="80" width="1" height="1"/><rect y="82" width="1" height="1" x="43"/><rect x="41" y="83" width="1" height="1"/></g><g fill="#222"><rect width="128" height="43"/><rect width="26" height="1" y="43"/><rect height="1" x="26" y="43" width="12"/><rect x="38" y="43" width="19" height="1"/><rect x="57" y="43" width="15" height="1"/><rect width="5" height="1" x="72" y="43"/><rect x="77" y="43" width="7" height="1"/><rect x="84" y="43" width="15" height="1"/><rect height="1" x="99" y="43" width="8"/><rect x="107" y="43" width="21" height="85"/><rect y="44" width="25" height="84"/><rect y="44" width="12" height="1" x="42"/><rect x="54" y="44" width="1" height="1"/><rect width="3" height="84" x="73" y="44"/><rect x="85" y="44" width="13" height="1"/><rect x="44" y="45" width="9" height="1"/><rect x="76" y="45" width="1" height="1"/><rect x="86" y="45" width="12" height="1"/><rect x="45" y="46" width="8" height="1"/><rect width="1" height="82" x="76" y="46"/><rect x="86" y="46" width="11" height="3"/><rect x="97" y="46" width="1" height="1"/><rect y="46" width="1" height="1" x="106"/><rect x="46" y="47" width="6" height="1"/><rect y="47" width="22" height="81" x="106"/><rect width="5" height="1" x="47" y="48"/><rect x="48" y="49" width="4" height="2"/><rect x="77" y="49" width="1" height="79"/><rect x="87" y="49" width="10" height="1"/><rect y="50" width="9" height="3" x="87"/><rect x="105" y="50" width="23" height="78"/><rect height="1" x="48" y="51" width="2"/><rect height="26" x="50" y="51" width="1"/><rect x="51" y="51" width="1" height="77"/><rect x="33" y="52" width="6" height="1"/><rect y="52" width="1" height="76" x="49"/><rect x="60" y="52" width="18" height="8"/><rect x="33" y="53" width="2" height="21"/><rect height="1" x="35" y="53" width="1"/><rect x="36" y="53" width="2" height="23"/><rect x="38" y="53" width="1" height="1"/><rect x="39" y="53" width="1" height="22"/><rect x="78" y="53" width="1" height="75"/><rect width="8" height="1" x="88" y="53"/><rect x="35" y="54" width="6" height="20"/><rect x="88" y="54" width="7" height="3"/><rect x="104" y="54" width="24" height="74"/><rect x="79" y="57" width="1" height="71"/><rect width="6" height="1" x="89" y="57"/><rect width="5" height="3" x="89" y="58"/><rect x="103" y="58" width="25" height="70"/><rect x="68" y="60" width="12" height="16"/><rect y="60" width="1" height="1" x="80"/><rect y="61" width="1" height="67" x="80"/><rect x="90" y="61" width="4" height="1"/><rect x="90" y="62" width="1" height="2"/><rect y="62" width="1" height="1" x="91"/><rect x="92" y="62" width="1" height="4"/><rect height="66" x="102" y="62" width="26"/><rect x="91" y="63" width="2" height="3"/><rect height="64" x="81" y="64" width="1"/><rect height="1" x="90" y="64" width="1"/><rect y="65" width="1" height="1" x="101"/><rect width="1" height="3" x="91" y="66"/><rect x="101" y="66" width="27" height="62"/><rect height="6" x="60" y="68" width="23"/><rect y="69" width="28" height="59" x="100"/><rect width="1" height="56" x="83" y="72"/><rect width="29" height="55" x="99" y="73"/><rect width="1" height="1" x="33" y="74"/><rect y="74" width="1" height="2" x="34"/><rect x="35" y="74" width="1" height="1"/><rect width="2" height="1" x="38" y="74"/><rect x="60" y="74" width="2" height="2"/><rect x="62" y="74" width="1" height="1"/><rect width="21" height="2" x="63" y="74"/><rect x="33" y="75" width="6" height="1"/><rect x="62" y="75" width="22" height="1"/><rect height="1" x="84" y="75" width="1"/><rect x="48" y="76" width="2" height="52"/><rect height="52" x="82" y="76" width="3"/><rect height="51" x="50" y="77" width="2"/><rect y="77" width="30" height="51" x="98"/><rect height="1" x="47" y="78" width="1"/><rect x="47" y="79" width="5" height="49"/><rect x="85" y="79" width="1" height="49"/><rect x="46" y="80" width="6" height="48"/><rect x="97" y="80" width="31" height="48"/><rect x="45" y="81" width="8" height="47"/><rect x="86" y="81" width="1" height="47"/><rect x="96" y="81" width="1" height="1"/><rect x="44" y="82" width="9" height="46"/><rect x="87" y="82" width="1" height="46"/><rect x="96" y="82" width="32" height="46"/><rect y="83" width="13" height="45" x="42"/><rect x="88" y="83" width="1" height="45"/><rect x="94" y="83" width="1" height="1"/><rect height="45" x="95" y="83" width="33"/><rect y="84" width="103" height="44" x="25"/></g><g fill="#888"><rect x="25" y="44" width="1" height="1"/><rect height="1" x="106" y="45" width="1"/><rect width="1" height="1" x="85" y="46"/><rect x="46" y="48" width="1" height="1"/><rect width="1" height="1" x="86" y="50"/><rect height="1" x="33" y="51" width="5"/><rect x="60" y="51" width="12" height="1"/><rect y="51" width="1" height="1" x="96"/><rect y="55" width="1" height="1" x="79"/><rect x="95" y="55" width="1" height="1"/><rect width="1" height="1" x="103" y="56"/><rect x="94" y="59" width="1" height="1"/><rect y="60" width="1" height="1" x="102"/><rect y="67" width="1" height="1" x="67"/><rect height="1" x="91" y="69" width="1"/><rect x="83" y="70" width="1" height="1"/><rect x="84" y="74" width="1" height="1"/><rect height="1" x="98" y="75" width="1"/><rect width="1" height="1" x="46" y="79"/><rect width="1" height="1" x="86" y="80"/><rect x="25" y="83" width="1" height="1"/></g><g fill="#aaa"><rect x="40" y="44" width="1" height="1"/><rect width="1" height="1" x="55" y="44"/><rect y="44" width="1" height="1" x="72"/><rect height="1" x="45" y="47" width="1"/><rect width="1" height="1" x="85" y="47"/><rect x="97" y="48" width="1" height="1"/><rect x="105" y="48" width="1" height="1"/><rect height="30" x="52" y="49" width="1"/><rect y="50" width="1" height="1" x="47"/><rect x="96" y="52" width="1" height="1"/><rect height="20" x="48" y="54" width="1"/><rect height="1" x="80" y="58" width="1"/><rect height="1" x="102" y="59" width="1"/><rect x="81" y="62" width="1" height="1"/><rect y="63" width="1" height="1" x="101"/><rect height="1" x="90" y="66" width="1"/><rect width="1" height="1" x="84" y="73"/><rect x="47" y="77" width="1" height="1"/><rect height="1" x="85" y="77" width="1"/><rect y="78" width="1" height="1" x="97"/><rect x="40" y="83" width="1" height="1"/><rect x="55" y="83" width="1" height="1"/><rect height="1" x="72" y="83" width="1"/><rect height="1" x="93" y="83" width="1"/></g><g fill="#fff"><rect x="71" y="44" width="1" height="7"/><rect x="83" y="44" width="1" height="24"/><rect x="26" y="45" width="16" height="6"/><rect y="45" width="17" height="6" x="55"/><rect x="77" y="45" width="8" height="1"/><rect x="99" y="45" width="7" height="1"/><rect height="36" x="42" y="46" width="2"/><rect y="46" width="18" height="5" x="54"/><rect y="46" width="7" height="3" x="78"/><rect y="46" width="6" height="4" x="99"/><rect width="1" height="34" x="44" y="47"/><rect width="19" height="4" x="53" y="47"/><rect height="3" x="98" y="47" width="7"/><rect y="48" width="1" height="32" x="45"/><rect y="49" width="7" height="4" x="79"/><rect width="1" height="28" x="46" y="50"/><rect width="6" height="4" x="98" y="50"/><rect x="26" y="51" width="6" height="32"/><rect y="51" width="8" height="1" x="39"/><rect y="51" width="6" height="30" x="53"/><rect width="7" height="3" x="97" y="51"/><rect width="7" height="2" x="41" y="52"/><rect height="4" x="80" y="53" width="7"/><rect x="47" y="54" width="1" height="22"/><rect x="96" y="54" width="7" height="4"/><rect x="81" y="57" width="7" height="3"/><rect y="58" width="7" height="3" x="95"/><rect x="59" y="60" width="1" height="8"/><rect x="82" y="60" width="6" height="4"/><rect x="60" y="61" width="7" height="6"/><rect width="1" height="21" x="88" y="61"/><rect x="95" y="61" width="6" height="4"/><rect x="94" y="62" width="7" height="3"/><rect width="5" height="8" x="84" y="64"/><rect width="1" height="18" x="89" y="65"/><rect x="94" y="65" width="6" height="4"/><rect x="93" y="66" width="7" height="3"/><rect x="90" y="69" width="1" height="14"/><rect x="93" y="69" width="6" height="4"/><rect width="7" height="3" x="92" y="70"/><rect width="8" height="2" x="91" y="71"/><rect x="85" y="72" width="14" height="1"/><rect width="13" height="2" x="85" y="73"/><rect width="7" height="2" x="41" y="74"/><rect height="2" x="86" y="75" width="12"/><rect width="8" height="2" x="39" y="76"/><rect x="32" y="77" width="15" height="1"/><rect x="59" y="77" width="13" height="6"/><rect height="2" x="86" y="77" width="11"/><rect y="78" width="14" height="2" x="32"/><rect x="87" y="79" width="10" height="1"/><rect x="32" y="80" width="13" height="1"/><rect height="1" x="87" y="80" width="9"/><rect height="1" x="32" y="81" width="12"/><rect x="54" y="81" width="18" height="1"/><rect x="91" y="81" width="4" height="1"/><rect width="10" height="1" x="32" y="82"/><rect y="82" width="17" height="1" x="55"/><rect x="91" y="82" width="3" height="1"/></g><g fill="#bbb"><rect height="1" x="84" y="44" width="1"/><rect height="1" x="72" y="45" width="1"/><rect width="1" height="5" x="72" y="46"/><rect width="1" height="1" x="78" y="50"/><rect y="51" width="1" height="1" x="38"/><rect x="86" y="51" width="1" height="1"/><rect x="79" y="54" width="1" height="1"/><rect y="55" width="1" height="1" x="87"/><rect x="103" y="55" width="1" height="1"/><rect width="1" height="1" x="95" y="56"/><rect x="94" y="60" width="1" height="1"/><rect x="67" y="62" width="1" height="4"/><rect x="93" y="64" width="1" height="1"/><rect x="82" y="65" width="1" height="1"/><rect height="1" x="60" y="67" width="6"/><rect width="1" height="1" x="66" y="67"/><rect x="83" y="69" width="1" height="1"/><rect y="70" width="1" height="1" x="99"/><rect x="98" y="74" width="1" height="1"/><rect x="38" y="76" width="1" height="1"/><rect height="5" x="72" y="77" width="1"/><rect width="1" height="1" x="96" y="80"/><rect height="1" x="87" y="81" width="1"/><rect y="82" width="1" height="1" x="72"/></g><g fill="#999"><rect x="98" y="44" width="1" height="1"/><rect height="1" x="106" y="44" width="1"/><rect x="25" y="45" width="1" height="38"/><rect x="44" y="46" width="1" height="1"/><rect width="1" height="1" x="77" y="47"/><rect x="52" y="48" width="1" height="1"/><rect x="78" y="51" width="1" height="1"/><rect y="52" width="1" height="1" x="104"/><rect x="48" y="53" width="1" height="1"/><rect y="54" width="1" height="1" x="87"/><rect x="88" y="58" width="1" height="1"/><rect x="67" y="60" width="1" height="1"/><rect x="89" y="62" width="1" height="1"/><rect x="93" y="63" width="1" height="1"/><rect height="1" x="82" y="66" width="1"/><rect width="1" height="1" x="92" y="67"/><rect x="100" y="67" width="1" height="1"/><rect height="1" x="99" y="71" width="1"/><rect x="48" y="74" width="1" height="1"/><rect y="76" width="5" height="1" x="33"/><rect x="60" y="76" width="12" height="1"/><rect height="1" x="52" y="79" width="1"/><rect height="1" x="45" y="80" width="1"/><rect x="44" y="81" width="1" height="1"/><rect y="83" width="1" height="1" x="89"/></g><g fill="#444"><rect height="1" x="53" y="45" width="1"/><rect x="85" y="45" width="1" height="1"/><rect width="1" height="1" x="47" y="49"/><rect height="1" x="86" y="49" width="1"/><rect x="96" y="50" width="1" height="1"/><rect y="53" width="1" height="1" x="87"/><rect x="95" y="54" width="1" height="1"/><rect width="1" height="1" x="79" y="56"/><rect x="103" y="57" width="1" height="1"/><rect y="58" width="1" height="1" x="94"/><rect x="102" y="61" width="1" height="1"/><rect y="71" width="1" height="1" x="83"/><rect x="98" y="76" width="1" height="1"/><rect x="53" y="82" width="1" height="1"/><rect height="1" x="95" y="82" width="1"/></g></svg>